<svg id="Layer_1" data-name="Layer 1" xmlns="http://www.w3.org/2000/svg" viewBox="0 0 94 94"><path d="M40.78,51.84H36.43a.75.75,0,0,1-.56-.25.76.76,0,0,1-.18-.59l.87-6.82a4,4,0,1,1,4.1,0L41.53,51a.77.77,0,0,1-.19.59A.73.73,0,0,1,40.78,51.84Zm-3.49-1.5h2.64l-.83-6.49a.76.76,0,0,1,.46-.79,2.47,2.47,0,1,0-1.9,0,.75.75,0,0,1,.45.79Z"/><path d="M16.83,77.24A15.58,15.58,0,1,1,32.4,61.66,15.6,15.6,0,0,1,16.83,77.24Zm0-29.65A14.08,14.08,0,1,0,30.9,61.66,14.09,14.09,0,0,0,16.83,47.59Z"/><path d="M86.07,77.24H43.42a3.89,3.89,0,0,1-3.89-3.89v-3a.75.75,0,0,1,1.5,0v3a2.4,2.4,0,0,0,2.39,2.39H86.07a1.55,1.55,0,0,0,1.55-1.54V48.38a1.25,1.25,0,0,0-1.25-1.25H59.56a.75.75,0,0,1,0-1.5H86.37a2.75,2.75,0,0,1,2.75,2.75V74.2A3.05,3.05,0,0,1,86.07,77.24Z"/><path d="M89.71,73.61H88.37a.75.75,0,0,1,0-1.5h1.34a1.55,1.55,0,0,0,1.54-1.55V45.77A2.28,2.28,0,0,0,89,43.5H59.56a.75.75,0,0,1,0-1.5H89a3.77,3.77,0,0,1,3.78,3.77V70.56A3.05,3.05,0,0,1,89.71,73.61Z"/><path d="M82.61,67H74.67a.75.75,0,1,1,0-1.5h7.94a.75.75,0,0,1,0,1.5Z"/><path d="M82.61,71.41h-7.7a.75.75,0,0,1,0-1.5h7.7a.75.75,0,0,1,0,1.5Z"/><path d="M58.79,71.41H48a.75.75,0,0,1,0-1.5H58.79a.75.75,0,0,1,0,1.5Z"/><path d="M78.5,61.59a4.86,4.86,0,1,1,4.86-4.86A4.87,4.87,0,0,1,78.5,61.59Zm0-8.22a3.36,3.36,0,1,0,3.36,3.36A3.37,3.37,0,0,0,78.5,53.37Z"/><path d="M71.26,61.59a4.86,4.86,0,1,1,4.28-7.16.74.74,0,0,1-.3,1,.75.75,0,0,1-1-.3,3.36,3.36,0,1,0,0,3.18.75.75,0,0,1,1-.3.74.74,0,0,1,.3,1A4.85,4.85,0,0,1,71.26,61.59Z"/><path d="M16.89,69.11a6.24,6.24,0,0,1-2.81-.65,4,4,0,0,1-2.16-2.58.75.75,0,0,1,.53-.92.76.76,0,0,1,.92.54,2.58,2.58,0,0,0,1.39,1.63,4.93,4.93,0,0,0,3.73.2,2.72,2.72,0,0,0,1.79-2.81c-.23-1.28-1.7-1.88-3-2l-.53-.05a7,7,0,0,1-3.15-.82,3.69,3.69,0,0,1-1.75-3.43,4.06,4.06,0,0,1,2.38-3.44,6.06,6.06,0,0,1,6.5,1,3.84,3.84,0,0,1,1,1.57.75.75,0,1,1-1.44.44,2.45,2.45,0,0,0-.58-1,4.57,4.57,0,0,0-4.82-.65,2.58,2.58,0,0,0-1.5,2.17,2.19,2.19,0,0,0,1.05,2.06,5.68,5.68,0,0,0,2.49.6l.56,0c1.84.21,3.94,1.17,4.31,3.26A4.21,4.21,0,0,1,19,68.73,6,6,0,0,1,16.89,69.11Z"/><path d="M16.83,55.72a.75.75,0,0,1-.75-.75V52.64a.75.75,0,0,1,1.5,0V55A.76.76,0,0,1,16.83,55.72Z"/><path d="M16.83,71.43a.74.74,0,0,1-.75-.75V68.36a.75.75,0,0,1,1.5,0v2.32A.75.75,0,0,1,16.83,71.43Z"/><path d="M38.61,67.15a.71.71,0,0,1-.32-.07,51.42,51.42,0,0,1-7.08-4,.75.75,0,1,1,.84-1.24,50.6,50.6,0,0,0,6.56,3.72C46.87,61.63,51,57.34,53,54.41a8.88,8.88,0,0,0,1.52-5.07V30.7a36.21,36.21,0,0,1-15.87-6.65A36.32,36.32,0,0,1,22.73,30.7V47.76a.75.75,0,0,1-1.5,0V30a.74.74,0,0,1,.66-.74,34.71,34.71,0,0,0,16.27-6.78.75.75,0,0,1,.9,0A34.67,34.67,0,0,0,55.32,29.3.74.74,0,0,1,56,30v19.3a10.49,10.49,0,0,1-1.77,5.92c-2.13,3.11-6.5,7.69-15.28,11.82A.71.71,0,0,1,38.61,67.15Z"/><path d="M38.61,71.89a.8.8,0,0,1-.3-.06,60.1,60.1,0,0,1-8-4.2.75.75,0,0,1,.8-1.27,59.45,59.45,0,0,0,7.85,4.1.75.75,0,0,1-.3,1.43Z"/><path d="M38.61,71.89a.75.75,0,0,1-.69-.45.74.74,0,0,1,.39-1C48.82,65.89,54,60.53,56.54,56.85a13.31,13.31,0,0,0,2.27-7.51V26.67c-10.3,0-18.13-6.27-20.2-8.13-2.06,1.84-9.81,8.13-20,8.13h-.2V46.86a.75.75,0,0,1-1.5,0v-21a.74.74,0,0,1,.23-.54.73.73,0,0,1,.55-.21C29.22,25.62,38,17.06,38.08,17a.75.75,0,0,1,1.06,0c.08.08,8.86,8.65,20.39,8.17a.75.75,0,0,1,.55.21.78.78,0,0,1,.23.54V49.34a14.8,14.8,0,0,1-2.53,8.35c-2.63,3.85-8,9.43-18.87,14.14A.8.8,0,0,1,38.61,71.89Z"/></svg>